.


A team of several researchers travel to the Swiss Alps to investigate a scientific discovery on human evolution. The trip, however, turns into a deadly fight for survival when the team crash into a gully and find themselves falling prey to someone...or something. 


Cast:

Lorànt Deutsch	        ... 	Thomas
Sara Forestier	        ... 	Nadia
Dominique Pinon	        ... 	Gildas
Manon Tournier	        ... 	Elodie
Élise Otzenberger	... 	Patricia
Philippe Nahon	        ... 	Schneider
Christian Kmiotek	... 	Paulo
Marc Olinger	        ... 	Le bourgmestre
Marie-Paule von Roesgen	... 	La mère du bourgmestre
Catherine Robert	... 	La jeune Allemande
Jacques Michel	        ... 	Médecin de l'hôpital
Monsieur Brantschen	... 	Contrôleur gare
René-Joseph Zurkinden	... 	Le chef de gare
Marie Brantschen	... 	Jeune fille effrayée 1
Mégane Jagut	        ... 	Jeune fille effrayée 2




ORIGINAL TITLE: Humains (Humans)
Genre:          Horror
COUNTRY:        France / Switzerland
YEAR:           2009
DIRECTOR:       Pierre-Olivier Thevenin and Jacques-Olivier Molon
WRITER          Silvan Boris Schmid, Frédérique Henri, Jean-Dominique Armand    Néraud and Bougrelle
PRODUCER:       Summer Frediani and Franck Ribière
PHOTO:          Aleksander Kaufmann
LANGUAGE:       French
SUBS:           No


Format                           : AVI
Format/Info                      : Audio Video Interleave
File size                        : 1.03 GiB
Duration                         : 1h 23mn
Overall bit rate                 : 1 767 Kbps

Video
ID                               : 0
Format                           : MPEG-4 Visual
Format profile                   : AdvancedSimple@L5
Format settings, BVOP            : Yes
Format settings, QPel            : No
Format settings, GMC             : No warppoints
Format settings, Matrix          : Default (MPEG)
Muxing mode                      : Packed bitstream
Codec ID                         : XVID
Codec ID/Hint                    : XviD
Duration                         : 1h 23mn
Bit rate                         : 1 309 Kbps
Width                            : 688 pixels
Height                           : 384 pixels
Display aspect ratio             : 16:9
Frame rate                       : 25.000 fps
Resolution                       : 24 bits
Colorimetry                      : 4:2:0
Scan type                        : Progressive
Bits/(Pixel*Frame)               : 0.198
Stream size                      : 780 MiB (74%)
Writing library                  : XviD 1.2.0.dev47 (UTC 2006-11-01)

Audio
ID                               : 1
Format                           : AC-3
Format/Info                      : Audio Coding 3
Codec ID                         : 2000
Duration                         : 1h 23mn
Bit rate mode                    : Constant
Bit rate                         : 448 Kbps
Channel(s)                       : 6 channels
Channel positions                : Front: L C R, Surround: L R, LFE
Sampling rate                    : 48.0 KHz
Stream size                      : 267 MiB (25%)
Alignment                        : Split accross interleaves
Interleave, duration             : 40 ms (1.00 video frame)
Interleave, preload duration     : 500 ms

General
Complete name                    : E:VAnkoHumains.2009.FRENCH.DVDRIP.XVID.AC3-BN.DIVHumains.2009.FRENCH.DVDRIP.XVID.AC3-BN.DIV.srt
Format                           : SubRip
File size                        : 43.2 KiB

Text
Format                           : SubRip



.